REM DIRINDEX 1\2,1\3,1\4
REM DIRNAME folder01,folder02,folder03,folder04
TITLE ""
FILE "CD1Track22.mp3" MP3
  TRACK 01 AUDIO
    TITLE "0:"
    INDEX 01 00:00:00
  TRACK 02 AUDIO
    TITLE "2:cjc075_0167"
    INDEX 01 00:00:21
  TRACK 03 AUDIO
    TITLE "2:cjc075_0168"
    INDEX 01 00:08:52
  TRACK 04 AUDIO
    TITLE "2:cjc075_0169"
    INDEX 01 00:15:46
  TRACK 05 AUDIO
    TITLE "2:cjc075_0170"
    INDEX 01 00:26:67
  TRACK 06 AUDIO
    TITLE "0:"
    INDEX 01 00:34:43
